# xmcd CD database file
#
# Track frame offsets:
#	150
#	22444
#	44392
#	64658
#	81513
#	97634
#	109432
#	136103
#	154211
#	171001
#	185659
#	199407
#	222004
#	241242
#	258002
#
# Disc length: 3704 seconds
#
# Revision: 0
# Processed by: cddbd v1.5.1PL0 Copyright (c) Steve Scherf et al.
# Submitted via: CDex 1.51
#
DISCID=d20e760f
DTITLE=Pim Jacobs - Sophisticated Lady
DYEAR=2001
DGENRE=Jazz
TTITLE0=Misty
TTITLE1=Tenderly
TTITLE2=Sophiticated Lady
TTITLE3=I've grown accustomed to her face
TTITLE4=Laura
TTITLE5=Music all in 'tune'
TTITLE6=Stardust
TTITLE7=September Song
TTITLE8=All the things you are
TTITLE9=Over the rainbow
TTITLE10=Someday my prince will come
TTITLE11=Äck, Varmeland du sköna
TTITLE12=Seven come eleven
TTITLE13=You got to my head
TTITLE14=Stompin' at the Savoy
EXTD=YEAR: 2001
EXTT0=
EXTT1=
EXTT2=
EXTT3=
EXTT4=
EXTT5=
EXTT6=
EXTT7=
EXTT8=
EXTT9=
EXTT10=
EXTT11=
EXTT12=
EXTT13=
EXTT14=
PLAYORDER=
